<svg id="Layer_1" enable-background="new 0 0 55 55" height="512" viewBox="0 0 55 55" width="512" xmlns="http://www.w3.org/2000/svg"><g id="Surgical_Gloves"><g><g><g><path d="m26.3410606 39.020256c-.5858345 1.453186-1.1864586 2.9316711-2.1830425 4.1407089s-2.4701214 2.1282043-4.0358753 2.0701561c-2.2280979-.0826035-5.0485363-2.5049362-5.6007519-4.6601257-.2717361-1.0605354.0621939-2.2033005.6540728-3.1243095.5918779-.9210091 1.4216452-1.6598969 2.2406588-2.3863945" fill="#ffc372"/></g></g><g><g><path d="m28.9575996 38.0592995c.6715279-1.0469856 1.7250767-1.7009087 2.7434196-2.2301216 3.7626686-1.9553947 7.796566-3.2426529 11.9086037-3.8001633 2.219223-.3008804 4.5305061-.4124889 6.5206718-1.5620918.5613708-.3242722 1.1478691-.8468876 1.1459923-1.5592899-.0017853-.6777363-.5724564-1.2117138-1.1617279-1.3381081s-1.1919785.0505466-1.7757034.2063599c-2.2590141.6029911-4.4398155.2623787-6.7609901.2540798 3.6468048-2.0842724 7.4984589-4.3832741 9.5122223-8.4015923.3263168-.6511402.593792-1.4788017.2490425-2.1177006-.3896065-.7220364-1.3397942-.7439785-2.0206909-.3929806s-1.4165993 1.0314503-2.1036758 1.3667145c1.2157936-1.1718426 2.2591171-2.5716171 3.0743294-4.1246805.2781258-.5298615.5362282-1.1040154.5436668-1.7200108.0074387-.6159945-.3091736-1.2774324-.8382263-1.4262533-.3811035-.1072016-.7764778.0632753-1.1354599.2432575-.7661629.3841286-1.5619774.5119162-2.2759399 1.0081062.2345047-.864501.8408089-1.5261745 1.2443733-2.3069658.4035606-.7807913.5520363-1.9015217-.0496101-2.4976764-.4196472-.4158154-1.068779-.4084659-1.5794106-.1538448-.5106316.2546206-.916317.7120919-1.3153419 1.1530681-3.8415909 4.2454901-8.2233162 7.8659887-12.9683685 10.7154074-.5774174.3467407-.9209499.2474117-1.4732723-.148098 1.1645088-1.7787037 2.3290157-3.5574083 3.4935284-5.336113.2996063-.4576311.6041946-.9260349.7577705-1.4681835s.1318474-1.1810417-.1816406-1.6266432c-.3185654-.4528189-.8798981-.618288-1.3875771-.5438643s-.9729767.3533907-1.4083519.6576986c-2.3523159 1.6441727-4.1559849 4.1286497-5.6504269 6.7586279-1.4944439 2.6299782-2.7222977 5.4432697-4.2043781 8.0821648-1.8704643 3.3304234-3.3132591 3.901083-7.2940645 2.8079224-.058836 2.331398.4617662 4.2126293 1.9662085 5.7939053 2.8624744 3.0086632 6.0350857 5.971096 10.1490154 5.758049 1.3797491-.0715065 1.570236-.9505997 2.2760122-2.0509796z" fill="#3a97d4"/></g></g><g><g><path d="m28.6806335 37.5877571c-3.5664063-1.6303711-6.9550781-3.7495117-10.0722656-6.2988281-.2159882-.1759071-.0208359-.5250835.2441406-.4282227l7.6289063 2.8046875c.1298828.0478516.1962891.1914063.1484375.3208008-.046875.1298828-.1904297.1972656-.3203125.1489258l-6.1601563-2.2646484c2.7402344 2.09375 5.6738281 3.8608398 8.7382813 5.262207.1259766.0576172.1816406.2060547.1240234.331543-.0578212.1263999-.2068996.1801338-.3310547.1235351z"/></g></g><g><g><path d="m4.1981716 40.5133591c.3839793-2.6916275-.8980362-5.8502235.4755816-8.2051849.3824301-.6556473.9487395-1.1724586 1.2422104-1.8842468.2215247-.5372887.2940779-1.1914902.6966949-1.5714455.4567595-.4310513 1.1963439-.3567696 1.5940647-.8569851.3076868-.3869801.3169479-1.016468.6738138-1.3451405.3803444-.350296.9361191-.1832047 1.426753-.1754322 2.5815964.0409031 2.7111769-1.6396255 4.0325651-1.863924 1.2490234-.2120152 3.1131687 1.7414513 3.994751 2.6609268 2.6258316 2.7386951 3.2238731 4.1581573 2.8663006 8.0689697-.1010723 1.1054535-.3610992 3.8488579-1.4352245 4.1540413-.3471508.0986328-.7199898-.0640106-.9919968-.3269424-.272007-.262928-.4617348-.6156044-.6448936-.9631195.0175533.5330925-.1229267.8294601-.3187695 1.3148575-.5200939 1.2890472-1.7890072 1.3984756-2.2632685.5692329-.2906961 1.1241341-1.4612646 2.0909462-2.4750032 1.5046272.1608343.5265732-.2221613 1.0383644-.6249819 1.3594971-.4028206.3211365-.8886795.4885712-1.293066.8071823-1.0991945.8660469-1.3990164 2.6673698-2.5310307 3.4776306-2.0783811 1.4876442-4.3424654-1.1716614-5.0004263-3.1989021-.4300868-1.3254509.3958851-2.263588.5759259-3.5256424z" fill="#3a97d4"/></g></g><g><g><path d="m19.6288757 39.0140266c.7150288-.2028198 1.0058956-2.9782715 1.0742188-3.7192383.3430481-3.741827-.1894913-5.026207-2.7294922-7.6772461-.6894398-.7183704-2.5619297-2.6806488-3.5498047-2.5131836-.2675781.0405273-.5302734-.1367188-.5771484-.4091797-.0458984-.2724609.1367188-.5307617.4091797-.5771484 1.503334-.2550125 3.3845863 1.7074203 4.4394531 2.8076172 2.7236176 2.8408356 3.3759422 4.3956566 3.0039063 8.4604492-.1337967 1.4537125-.4035721 4.194046-1.796875 4.5898438-.6394597.1836739-.9053422-.781868-.2734376-.9619141z"/></g></g><g><g><path d="m11.8368835 41.610218c-.2753906 0-.5556641-.0712891-.8105469-.2148438-.4550781-.2563477-.8222656-.7324219-1.0087891-1.3061523-.2684059-.8236008-.1048002-1.8861351-1.4433594-2.4267578-.4707031-.1904297-.9931645-.2431641-1.5000005-.2939453-.3304462-.0330467-.2778549-.5370674.0507813-.4970703.5410156.0541992 1.0996099.1103516 1.6367192.3271484 1.6093016.649765 1.4840155 1.9750061 1.7314453 2.7363281.1484375.4560547.4316406.8295898.7792969 1.0249023 1.5977898.9009743 2.8385057-2.0327225.9199219-5.3979492-.6308594-1.1064453-1.4775391-2.0625-2.2958984-2.987793-.2190123-.2484512.1554966-.5785789.375-.3310547.8349609.9438477 1.6992188 1.9199219 2.3544922 3.0712891.5205078.9111328 1.1220703 2.3325195 1.0292969 3.9243164-.0720663 1.2151719-.6529026 2.3715821-1.8183594 2.3715821z"/></g></g><g><g><path d="m12.8056335 41.0784798c.1357422-.0351563.2685547.0483398.3027344.1821289.0556641.222168.3652344.3374023.6025391.2929688.3154297-.0595703.5869141-.3095703.7890625-.5209961.3330078-.3476563.7480469-.7807617.9746094-1.2353516.5263672-1.0522461.65625-2.7050781.2958984-3.7636719-.6352835-1.8641891-2.444911-3.0276375-3.3974609-4.8256836-.0644531-.1220703-.0185547-.2734375.1035156-.3378906.1210938-.0639648.2734375-.0185547.3378906.1035156.9548903 1.8021202 2.7387676 2.8698349 3.4287109 4.8989258.4052734 1.1889648.2666016 2.972168-.3212891 4.1479492-.2597656.5224609-.7041016.9858398-1.0605469 1.3579102-.2539063.2651367-.6025391.5800781-1.0566406.6665039-.9514503.1775093-1.4944657-.8433533-.9990234-.9663086z"/></g></g><g><g><path d="m15.2782898 40.2259407c.0908203-.1049805.2490234-.1162109.3525391-.0263672.5048714.4366951 1.4531384.2211037 1.8974609-.8085938.1923828-.4448242.3925781-.9526367.3378906-1.3481445-.1091671-.7820053.0879459-1.559082.2675781-2.3798828.3649235-1.7419167.0226021-2.2504768-.7324219-3.0458984l-2.5898438-2.7368164c-.0947266-.1000977-.0908203-.2583008.0097656-.3535156.1015625-.0952148.2597656-.090332.3535156.0097656 2.8293648 2.9893951 3.1235371 3.2276077 3.3789063 3.7963867.3496094.78125.2207031 1.7104492.0703125 2.4331055-.1621819.7395859-.3597183 1.5110016-.2617188 2.2080078.0722656.5239258-.15625 1.1083984-.375 1.6152344-.910589 2.1088295-3.169752 1.1726112-2.7089842.6367187z"/></g></g><g><g><path d="m5.5986018 44.2357063c-.2861328-.1264648-1.2714844-.5854492-1.9443359-1.2041016-.1780665-.1637764-.0414939-.4577293.1943359-.4326172.71875.0727539 1.4472656.0888672 2.1650391.0507813.3319016-.0232353.3572922.481472.0273438.4990234-.4619141.0253906-.9306641.0268555-1.3955078.0087891.3896484.2509766.8125.4697266 1.1542969.6201172.1269531.0561523.1835938.2036133.1279297.3300781-.0558373.1269646-.2043854.1827279-.3291017.1279297z"/></g></g><g><g><path d="m39.5673523 19.2625618 6.8818359-7.0522461c.2361145-.2361135.5867462.1144924.3574219.3496094l-6.8818359 7.0522461c-.2316399.2362728-.5885163-.1126786-.3574219-.3496094z"/></g></g><g><g><path d="m40.0185242 23.479847c-.0664063-.1206055-.0234375-.2729492.0976563-.3398438 2.5517578-1.4155273 4.8710938-3.2797852 6.8916016-5.5410156.09375-.1030273.2509766-.1108398.3535156-.0200195.1025391.0922852.1113281.25.0195313.3530273-2.0585938 2.3032227-4.4208984 4.2026367-7.0224609 5.6455078-.1201555.0662384-.2720911.0241547-.3398439-.0976562z"/></g></g><g><g><path d="m39.4472351 26.5926399c-.1298828-.0449219-.2001953-.1865234-.1552734-.3173828.2558594-.7509766.4765625-1.5205078.6582031-2.293457-.3789063.2543945-.6777344.6049805-.8515625 1.0073242-.0556641.1264648-.2021484.1845703-.328125.1303711-.1269531-.0546875-.1855469-.2016602-.1308594-.3286133.2900391-.671875.8652344-1.2241211 1.578125-1.5146484.1836891-.0763664.3813591.0866737.3388672.2832031-.2050781.96875-.4716797 1.9370117-.7919922 2.8769531-.0421181.1245976-.1770057.2013722-.3173828.15625z"/></g></g><g><g><path d="m37.632782 23.0242805c-.1357422-.0258789-.2246094-.1567383-.1992188-.2924805.1943359-1.0214844.6708984-1.9008789 1.4501953-2.6728516-.4550781.0449219-.8857422.1987305-1.2539063.4521484-.1113281.0791016-.2685547.050293-.3476563-.0644531-.078125-.1137695-.0498047-.269043.0644531-.3476563.6318359-.434082 1.4228516-.6206055 2.2099609-.53125.2205315.025692.3007889.3035221.1298828.4423828-.9765625.7954102-1.5527344 1.7163086-1.7617188 2.8154297-.0253484.1350061-.1553495.2243502-.2919919.1987306z"/></g></g><g><g><path d="m42.6620789 19.6736946c-.1132813-.0786133-.1416016-.2348633-.0625-.3481445.0800781-.112793.2363281-.140625.3476563-.0620117.2373047.1650391.4433594.2612305.6289063.2919922-.3203125-.4902344-.4726563-1.1245117-.3955078-1.7241211.0424881-.3328247.5379639-.2621861.4960938.0634766-.0791016.6142578.1376953 1.2705078.5507813 1.6708984.1297607.125576.0882378.3410702-.0771484.4101563-.5161784.216236-1.0290073.0178164-1.4882815-.3022462z"/></g></g><g><g><path d="m42.7460632 15.8060188c-.7614784-.1363392-1.2679253-.9746199-1.0683594-1.8164063.0322266-.1342773.1640625-.2207031.3007813-.1860352.1337891.03125.2177734.1660156.1855469.300293-.13311.5688419.195858 1.1250839.6699219 1.2099609.2994613.0538598.2450904.5476838-.0878907.4921876z"/></g></g><g><g><path d="m28.0829773 19.7405891c-.1376953-.0136719-.2382813-.1362305-.2246094-.2734375.0136719-.1376953.1416016-.234375.2734375-.2246094.6611328.0664063 1.3183594.0209961 1.9619141-.1328125.3249474-.0761242.4353638.4109344.1152344.4863281-.7024746.1668893-1.4085598.2142793-2.1259766.1445313z"/></g></g><g><g><path d="m10.829071 29.3143196c-.109375-.0834961-.1308594-.2402344-.0478516-.3505859.0830078-.1088867.2412109-.1313477.3505859-.0478516.3496094.2661133.6787109.5649414.9824219.8935547l-.0654297-1.0478516c-.0205212-.3214912.478529-.3752537.4980469-.03125l.1142578 1.8071289c.0078125.1098633-.0585938.2114258-.1621094.25-.362542.1375161-.32699-.4538421-1.6699218-1.4731445z"/></g></g><g><g><path d="m6.5888362 36.6404915c-.5322266-.6645508-.7919922-1.5893555-.6943359-2.4736328.0363522-.3404961.5327101-.2668495.4960938.0546875-.0556641.5102539.0263672 1.0356445.2255859 1.4960938.125-.5493164.3935547-1.0473633.7939453-1.4667969.0957031-.0996094.2539063-.1020508.3535156-.0078125.0996094.0952148.1035156.253418.0078125.3535156-.4951172.5185547-.7431641 1.152832-.7373047 1.8857422.0021639.2358512-.296083.3432464-.4453125.1582031z"/></g></g><g><g><path d="m6.8388362 39.648304c-1.1357422-.6352539-2.0810547-1.7314453-2.6601563-3.0869141-.0546875-.1269531.0039063-.2739258.1308594-.328125.1269531-.0527344.2744141.0039063.328125.1318359.5371094 1.2543945 1.4052734 2.2651367 2.4453125 2.8466797.2863388.1606293.0475226.5969391-.2441406.4365235z"/></g></g><g><g><g><path d="m16.0497742 19.4891243c-.8720703-.5966797-1.8945313-1.0092773-2.9580078-1.1923828-.2724609-.046875-.4550781-.3051758-.4082031-.5776367.046875-.2719727.3027344-.4570313.578125-.4077148 1.2041016.2075195 2.3632813.675293 3.3525391 1.3525391.2285156.15625.2861328.4672852.1298828.6953125-.1576386.2300872-.4699079.2841777-.694336.1298827z"/></g></g><g><g><path d="m18.8310242 16.3406868c-.5566406-1.0791016-.7919922-2.2861328-.6796875-3.4907227.0253906-.2749023.2744141-.4741211.5439453-.4516602.2753906.0258789.4775391.2695313.4521484.5444336-.0947266 1.0141602.1035156 2.0307617.5722656 2.9399414.1269531.2451172.0302734.546875-.2148438.6733398-.239294.1244317-.5447597.0350038-.673828-.2153319z"/></g></g><g><g><path d="m16.4775085 16.6595345c-.8789063-.9389648-1.6523438-1.9770508-2.2988281-3.0849609-.1396484-.2382813-.0585938-.5444336.1796875-.6835938.2363281-.1396484.5439453-.059082.6835938.1796875.609375 1.043457 1.3378906 2.0209961 2.1660156 2.9052734.1884766.2016602.1777344.5180664-.0234375.7070313-.2022095.18791-.5172787.1785278-.7070313-.0234375z"/></g></g></g><g><g><path d="m25.1737976 29.2791634c-.1386719-.0014648-.2490234-.1142578-.2480469-.2524414.0009766-.137207.1132813-.2475586.25-.2475586h.0019531c2.7244377.0425682 5.6885586-1.1335411 7.7216797-3.3330078.09375-.1000977.2529297-.1064453.3535156-.0136719.1015625.09375.1074219.2519531.0136719.3535156-2.0869197 2.2563057-5.1681232 3.5374775-8.0927734 3.4931641z"/></g></g></g></g></svg>