<svg id="Layer_1" enable-background="new 0 0 55 55" height="512" viewBox="0 0 55 55" width="512" xmlns="http://www.w3.org/2000/svg"><g id="Vaccination"><g><g><g><path d="m15.6265574 11.7139244c-1.8666992-2.6298828-3.8881836-5.1962891-6.0083008-7.6279297-.1811523-.2080076-.159668-.5239255.0483398-.7055662.2070313-.1816406.5224609-.1606445.7055664.0483398 2.1416016 2.4565427 4.1835938 5.0493164 6.0698233 7.7060547.159668.2250977.1069336.5375977-.1181641.6972656-.2235508.1589707-.5361919.1081446-.6972646-.1181642z"/></g></g><g><g><path d="m19.4775791 18.7107792c-2.6388893-4.379158-4.39991-4.583869-4.6074009-6.7187357-.02421-.2491007-.0193806-.4142113.1342115-.6154795.2024622-.2653084.4990225-.58148.8303213-.674675.8319855-.2340374 1.8679676.0618687 2.4927101.8805847.4410477.5779877-.7902336-1.128089 4.3843117 5.0707378" fill="#3a97d4"/></g></g><g><g><path d="m43.5611076 35.9541512c-4.4491882-2.8624344-7.6703568-7.0382004-10.833931-11.1602478-2.3482018-3.059639-4.8577728-5.9529152-7.229723-8.9880724-.3776436-.4832335-.9701366-.7516155-1.5811291-.6985483-3.1001415.2692595-5.4077053 2.1376152-6.0318832 4.4859257-.1642952.6181164.0161991 1.2740879.4643803 1.7303677 6.4196453 6.5356445 12.0458755 13.7991924 16.7818279 21.6664829 2.7092019-2.3790704 5.5755997-4.8330918 8.4304581-7.0359078z" fill="#e2d2f6"/></g></g><g><g><path d="m30.6411743 24.9626026c.7653084.5513344 1.4366264 1.6834545 2.048317 2.4155807.9428673 1.1285057 1.8639908 2.2751732 2.7626915 3.4391556.806572 1.0446625 1.9784126 2.191988 2.0865822 3.5815487.1221619 1.5693207-2.2563934 3.5846634-3.7069206 2.6884003-.7801094-.482029-8.4950275-10.7447033-8.4178543-10.6442909-.2392387-.3112774-.074688-.7550774.3055172-.8529205.1941699-.0499669 3.4875201-1.6606465 4.921667-.6274739z" fill="#ffc372"/></g></g><g><g><ellipse cx="39.658" cy="40.269" fill="#3a97d4" rx="8.957" ry="2.135" transform="matrix(.775 -.632 .632 .775 -16.525 34.119)"/></g></g><g><g><path d="m10.5245676 26.8489723c.5600548.8226871.375309 1.8860188-.4482632 2.5800381-.4383516.3693981-1.0283346.6333294-1.4396744 1.0189972-.7538047.7067566-.7781715 1.6789112-.7691975 2.575346l.1584921 15.8319206c.0045061.4500618.2098703.8716698.5534887 1.162365 3.3495541 2.8336525 10.9828024 1.4277191 12.2689199.9787102.8222961-.2870827 1.8026028-.8497353 1.8092747-1.5162926.0549164-5.485569.1098328-10.9711342.1647472-16.4567032.0089741-.8964348-.0153923-1.8685894-.7691975-2.575346-.4113388-.3856678-1.0013218-.6495991-1.4396744-1.0189972-.8235722-.6940193-1.0083179-1.7573509-.4482632-2.5800381" fill="#ffc372"/></g></g><g><g><path d="m9.1361914 21.7537727c.2890282-.1769371.621809-.2208767.9458961-.2618275 3.0716696-.3881226 6.2536879-.3040352 9.3440733-.4598312.4894295-.0246735.9974957-.0456638 1.4492645.1769352 1.3562298.6683426 1.0329342 3.1779518 1.0691929 4.5259838.0196934.7321167-.1182308 1.0491695-.9449196 1.2065411-2.60742.4963665-5.2541447.6251144-7.8921413.6109982-1.0701618-.0057259-2.5348778.2491627-3.5190306-.2532349-.8431921-.4304371-1.6545186-1.4842262-1.4871931-2.6250668.1423893-.9708271.1888457-2.4025764 1.0348578-2.9204979z" fill="#ff5f6e"/></g></g><g><g><path d="m45.964447 43.6573181c2.5077515-1.6905289 4.6780815-2.4815941 5.2000313-1.8188858.6278343.8229523-1.397831 3.5018959-4.5321274 5.968895-3.132061 2.4802856-6.1867142 3.8285675-6.8145485 3.0056114-.4659996-.6118736.5367546-2.2450905 2.3610458-4.0590096.031559-.0313797-.3079414-.6246796-.3421593-.6908569-.8946075-1.730072-1.9689484-3.2478371-3.1624489-4.5599442-.1313477-.1444016-.2539063-.2236404-.1086693-.3962059.2495613-.2965126.9435501-.5686111 1.3464851-.8517227.6284065-.4415283 1.1060791-1.2272377 1.4209671-1.5202751.1090698-.1014977.9891129 2.1849251 3.864727 4.3758621.2496912.190239.5054552.3724976.7666971.5465317z" fill="#5bd9c3"/></g></g><g><g><path d="m22.1856384 26.5283775c-.2700195-.0571289-.4428711-.3222656-.3862305-.5922852.112545-.5323086.0697002-.5130539.0844727-1.3935547.0200195-1.2143555.046875-2.8764648-.793457-3.2905273-.4740677-.234333-.6679096-.1110382-4.3710938-.0224609-2.0302725.0483398-4.1293936.0986328-6.1386709.3525391-.2685547.034668-.5244141-.1591797-.5585938-.4335938-.034668-.2739258.159668-.5239258.4335938-.5585938 3.1011181-.3919601 6.3446321-.3087711 9.3813467-.4628906.4990234-.0239258 1.1191406-.0566406 1.6958008.2280273 1.4082031.6938477 1.375 2.7226563 1.3510742 4.2036133-.0149269.8433914.0323906.9318142-.105957 1.5834961-.0575409.2719098-.3242512.4428578-.5922852.3862305z"/></g></g><g><g><path d="m12.7716751 38.7258072c.1229401 3.8072891-.0898581 5.991394 1.2593632 6.877739 1.2353592.8115501 3.1689091.0495338 3.7125301-2.1750031.3618736-1.4808159.0119247-4.2280807-.2480469-5.7293892-.2223339-1.2839622-1.3356667-2.0986366-2.6599913-1.9626427-1.7001962.1745911-2.1121864 1.492527-2.0638551 2.989296z" fill="#fff"/></g></g><g><g><path d="m25.6368103 21.7671471c-.1044922-.090332-.1157227-.2480469-.0253906-.3525391.7290039-.8427734 1.6748047-1.5224609 2.7348633-1.9648438.1264648-.0517578.2734375.0068359.3266602.1342773s-.0068359.2739258-.1342773.3266602c-.9887695.4130859-1.8706055 1.0463867-2.5493164 1.8310547-.0899469.1041966-.2478639.1160355-.3525392.0253907z"/></g></g><g><g><path d="m29.9097595 27.0225182c-.1137695-.0786133-.1420898-.234375-.0634766-.3476563.6396484-.925293 1.4833984-1.7216797 2.4394531-2.3027344.1157227-.0717773.2714844-.034668.34375.0839844.0712891.1181641.0341797.2719727-.0839844.34375-.8969727.5444336-1.6879883 1.2915039-2.2880859 2.1591797-.0786857.1144524-.235506.1416035-.3476562.0634766z"/></g></g><g><g><path d="m34.2251892 31.6733971c-.2111626 0-.3291092-.2485085-.190918-.4116211.6279297-.7421875 1.3237305-1.4116211 2.0683594-1.9892578.1079102-.0859375.265625-.0654297.3505859.0439453.0849609.1088867.0649414.2661133-.0439453.3505859-.7172852.5566406-1.3876953 1.2021484-1.9931641 1.9179688-.0493163.0581054-.1201171.0883789-.1909179.0883789z"/></g></g><g><g><path d="m9.8560495 48.4341393c-.3730469-2.3876953-.3989258-4.8134766-.0761719-7.2094727.0180664-.137207.1474609-.2382813.2807617-.2143555.137207.0180664.2329102.144043.2143555.2807617-.315918 2.3486328-.2905273 4.7260742.0751953 7.065918.0214844.1362305-.0722656.2641602-.2084961.2856445-.1417398.021-.2646636-.0757904-.2856445-.208496z"/></g></g><g><g><path d="m37.0572205 42.9102135c-.105957-.0878906-.1210938-.2456055-.0327148-.3520508 1.6762695-2.0249023 3.6552734-3.7578125 5.8818359-5.1513672.1176758-.0727539.2719727-.0375977.3447266.0791016.0732422.1171875.0375977.2714844-.0791016.3447266-2.1811523 1.3652344-4.1201172 3.0629883-5.7626953 5.046875-.0876008.1058158-.2445679.1211662-.3520508.0327148z"/></g></g><g><g><path d="m10.5064402 31.9282799c-.1381836-.0063477-.2446289-.1235352-.237793-.2612305.0058594-.1376953.1235352-.2490234.2612305-.237793 3.2490234.1523438 6.5439444.0952148 9.7919912-.1708984.3339748-.0222645.3668461.4714718.0410156.4980469-3.261074.2680549-6.5723629.3267212-9.8564443.171875z"/></g></g><g><g><path d="m3.789221 13.4954119c-.1199899.9126883-.1118598 1.8657627.2832901 2.7148752 1.1148758 2.3956909 4.342402 2.3038673 5.5831161-.4553289.6500473-1.4456263.542119-3.0970516-.0061855-4.5756254-.3648166-.9837771-.9146795-1.9039708-1.5423107-2.7737723-.2101884-.2912893-.5862722-1.0237064-1.026588-1.0780435-.4539866-.0560245-.8124017.592619-1.0343298.8774419-1.2199526 1.5656891-2.0081816 3.3979063-2.2569922 5.290453z" fill="#3a97d4"/></g></g></g></g></svg>