<svg height="469pt" viewBox="-42 0 469 469.33333" width="469pt" xmlns="http://www.w3.org/2000/svg"><path d="m330.832031 0h-277.332031c-29.441406.0351562-53.296875 23.890625-53.332031 53.332031v362.667969c.035156 29.441406 23.890625 53.296875 53.332031 53.332031h277.332031c29.441407-.035156 53.300781-23.890625 53.335938-53.332031v-362.667969c-.035157-29.441406-23.894531-53.2968748-53.335938-53.332031zm32 416c-.019531 17.664062-14.332031 31.980469-32 32h-277.332031c-17.664062-.019531-31.980469-14.335938-32-32v-362.667969c.019531-17.664062 14.335938-31.980469 32-32h277.332031c17.667969.019531 31.980469 14.335938 32 32zm0 0"/><path d="m224.167969 42.667969h-64c-5.890625 0-10.667969 4.773437-10.667969 10.664062s4.777344 10.667969 10.667969 10.667969h64c5.890625 0 10.664062-4.777344 10.664062-10.667969s-4.773437-10.664062-10.664062-10.664062zm0 0"/><path d="m213.5 405.332031c0 11.785157-9.550781 21.335938-21.332031 21.335938-11.785157 0-21.335938-9.550781-21.335938-21.335938 0-11.78125 9.550781-21.332031 21.335938-21.332031 11.78125 0 21.332031 9.550781 21.332031 21.332031zm0 0"/></svg>