<svg id="Capa_1" enable-background="new 0 0 511.999 511.999" height="512" viewBox="0 0 511.999 511.999" width="512" xmlns="http://www.w3.org/2000/svg"><g><path d="m454.289 383.489c-4.143 0-7.5 3.358-7.5 7.5v6.518c0 17.92-14.579 32.5-32.5 32.5h-55.882c-9.649 0-17.5 7.851-17.5 17.5v46.992c0 1.378-1.121 2.5-2.5 2.5h-194.77c-1.379 0-2.5-1.122-2.5-2.5v-56.723c0-4.142-3.357-7.5-7.5-7.5s-7.5 3.358-7.5 7.5v56.723c0 9.649 7.851 17.5 17.5 17.5h194.77c9.649 0 17.5-7.851 17.5-17.5v-46.992c0-1.378 1.121-2.5 2.5-2.5h55.882c26.191 0 47.5-21.309 47.5-47.5v-6.518c0-4.142-3.357-7.5-7.5-7.5z"/><path d="m506.774 316.232-44.122-83.896c-.565-1.073-.862-2.28-.862-3.492v-27.377c0-52.995-20.339-103.095-57.269-141.07-37.06-38.108-86.555-59.549-139.365-60.372-51.006-.783-99.243 17.352-136.836 51.256l-16.538-16.538c-4.25-4.25-9.9-6.59-15.909-6.59h-47.354c-3.129-9.17-11.824-15.786-22.04-15.786-12.84 0-23.285 10.446-23.285 23.286s10.445 23.286 23.285 23.286c10.216 0 18.91-6.616 22.04-15.786h47.354c2.003 0 3.887.78 5.303 2.197l16.378 16.378c-33.036 34.494-52.295 78.754-55.047 126.24h-13.988c-3.129-9.17-11.824-15.786-22.04-15.786-12.84 0-23.285 10.446-23.285 23.286s10.445 23.286 23.285 23.286c10.216 0 18.91-6.616 22.04-15.786h13.67c.735 48.202 18.319 93.376 50.022 129.112l-32.454 32.454c-4.25 4.25-6.59 9.9-6.59 15.91v19.229c-9.17 3.129-15.786 11.824-15.786 22.04 0 12.84 10.446 23.286 23.286 23.286s23.286-10.446 23.286-23.286c0-10.216-6.616-18.91-15.786-22.04v-19.229c0-2.003.78-3.887 2.197-5.304l32.211-32.21c.391.381.773.769 1.168 1.148 1.521 1.459 2.395 3.461 2.395 5.493v54.906c0 4.142 3.357 7.5 7.5 7.5s7.5-3.358 7.5-7.5v-54.906c0-6.1-2.557-12.049-7.016-16.322-.318-.305-.625-.618-.941-.924l26.991-26.991 9.688 9.688c2.36 2.361 5.5 3.662 8.839 3.662s6.478-1.3 8.84-3.661l21.683-21.684c5.786 3.027 11.843 5.54 18.053 7.489v30.654c0 6.893 5.607 12.5 12.5 12.5h41.123c6.893 0 12.5-5.607 12.5-12.5v-30.654c6.209-1.949 12.265-4.461 18.052-7.489l21.685 21.684c4.874 4.873 12.804 4.871 17.678-.001l29.077-29.078c2.361-2.361 3.662-5.501 3.662-8.84s-1.301-6.478-3.661-8.838l-21.684-21.684c3.026-5.783 5.539-11.841 7.488-18.052h30.654c6.893 0 12.5-5.607 12.5-12.5v-41.123c0-6.893-5.607-12.5-12.5-12.5h-30.654c-1.949-6.21-4.461-12.267-7.488-18.052l21.683-21.683c2.361-2.361 3.662-5.5 3.662-8.839s-1.301-6.479-3.661-8.839l-29.08-29.08c-4.873-4.87-12.802-4.871-17.677.001l-21.684 21.684c-5.784-3.027-11.841-5.54-18.052-7.489v-30.654c0-6.893-5.607-12.5-12.5-12.5h-41.123c-6.893 0-12.5 5.607-12.5 12.5v30.654c-6.211 1.949-12.268 4.462-18.053 7.489l-21.685-21.686c-4.873-4.872-12.804-4.873-17.677.001l-8.453 8.453-22.471-22.47c34.686-31.021 79.072-47.606 125.985-46.875 48.814.761 94.573 20.589 128.846 55.832 34.192 35.159 53.022 81.545 53.022 130.612v27.377c0 3.634.893 7.255 2.586 10.473l44.123 83.898c.571 1.086.2 2.004-.072 2.456-.273.451-.913 1.207-2.141 1.207h-26.996c-9.649 0-17.5 7.851-17.5 17.5v14.314c0 4.142 3.357 7.5 7.5 7.5s7.5-3.358 7.5-7.5v-14.314c0-1.378 1.121-2.5 2.5-2.5h26.996c6.184 0 11.784-3.16 14.98-8.454 3.198-5.291 3.388-11.718.509-17.191zm-480.295-272.293c-4.568 0-8.285-3.717-8.285-8.286s3.717-8.286 8.285-8.286c4.569 0 8.286 3.717 8.286 8.286s-3.717 8.286-8.286 8.286zm54.187 386.061c-4.569 0-8.286-3.717-8.286-8.286s3.717-8.286 8.286-8.286 8.286 3.717 8.286 8.286-3.716 8.286-8.286 8.286zm-54.187-226.246c-4.568 0-8.285-3.717-8.285-8.286s3.717-8.286 8.285-8.286c4.569 0 8.286 3.717 8.286 8.286s-3.717 8.286-8.286 8.286zm96.362 117.696c-28.884-32.885-44.924-74.302-45.652-118.482h34.634v13.062c0 6.893 5.607 12.5 12.5 12.5h30.653c1.949 6.21 4.462 12.268 7.489 18.052l-21.685 21.685c-4.872 4.874-4.872 12.803 0 17.677l8.784 8.784zm55.857-233.161 21.232 21.232c3.89 3.89 9.986 4.765 14.824 2.127 5.896-3.215 12.138-5.804 18.553-7.696 5.279-1.558 8.967-6.486 8.967-11.983v-30.013h36.123v30.014c0 5.498 3.688 10.425 8.968 11.983 6.414 1.893 12.655 4.481 18.551 7.696 4.839 2.638 10.933 1.764 14.824-2.127l21.231-21.232 25.543 25.543-21.23 21.231c-3.893 3.892-4.767 9.989-2.128 14.824 3.214 5.895 5.803 12.137 7.695 18.554 1.56 5.279 6.487 8.966 11.983 8.966h30.014v36.123h-30.014c-5.497 0-10.425 3.688-11.983 8.968-1.893 6.416-4.482 12.657-7.694 18.549-2.64 4.839-1.765 10.936 2.126 14.826l21.232 21.231-25.543 25.543-21.231-21.231c-3.89-3.893-9.988-4.768-14.823-2.128-5.897 3.215-12.14 5.805-18.55 7.696-5.281 1.557-8.97 6.484-8.97 11.983v30.014h-36.123v-30.014c0-5.498-3.688-10.426-8.968-11.982-6.412-1.892-12.654-4.481-18.551-7.696-4.84-2.64-10.937-1.764-14.825 2.127l-21.232 21.232-25.543-25.543 21.232-21.233c3.89-3.89 4.764-9.985 2.127-14.823-3.215-5.896-5.804-12.138-7.695-18.549-1.557-5.281-6.484-8.97-11.983-8.97h-30.014v-36.123h30.014c5.498 0 10.426-3.688 11.982-8.968 1.892-6.412 4.481-12.654 7.696-18.551 2.637-4.837 1.763-10.933-2.127-14.824l-21.232-21.232zm-37.917 34.382 21.685 21.684c-3.027 5.786-5.54 11.842-7.489 18.052h-30.653c-6.893 0-12.5 5.607-12.5 12.5v13.062h-34.29c2.726-43.472 20.421-83.975 50.63-115.629l22.636 22.635-10.019 10.019c-4.873 4.873-4.873 12.803 0 17.677z"/><path d="m185.657 187.763c4.058.829 8.021-1.785 8.852-5.844 6.36-31.081 34.045-53.641 65.826-53.641 37.049 0 67.19 30.142 67.19 67.191s-30.142 67.191-67.19 67.191c-15.55 0-30.145-5.156-42.211-14.911-11.726-9.48-20.007-22.747-23.318-37.356-.916-4.04-4.93-6.572-8.973-5.657-4.039.916-6.572 4.933-5.656 8.972 4.054 17.883 14.181 34.115 28.517 45.706 14.554 11.766 32.894 18.246 51.642 18.246 45.32 0 82.19-36.871 82.19-82.191s-36.87-82.191-82.19-82.191c-38.875 0-72.739 27.603-80.521 65.634-.831 4.058 1.785 8.021 5.842 8.851z"/></g></svg>