<svg id="Icons" height="512" viewBox="0 0 70 70" width="512" xmlns="http://www.w3.org/2000/svg"><path d="m67 40.58-6.8-1.76a2.14 2.14 0 0 1 -1.1-.69l-7.54-8.88a4.18 4.18 0 0 0 -3.18-1.47h-12.38v-4.32c2.35 0 8.06-.48 11.78-4.2 4.68-4.68 4.22-12.52 4.22-12.85a1 1 0 0 0 -1-.93c-.34 0-8.18-.5-12.86 4.18a13.51 13.51 0 0 0 -3.14 5.41 13.51 13.51 0 0 0 -3.18-5.41c-4.68-4.66-12.52-4.2-12.82-4.18a1 1 0 0 0 -.93.93c0 .33-.49 8.17 4.19 12.85 3.68 3.74 9.39 4.18 11.74 4.2v4.32h-7.68a4.14 4.14 0 0 0 -3.26 1.58l-7.33 9.19a1.25 1.25 0 0 0 -.24.16l-11.25 3.38a5 5 0 0 0 -3.74 4.82v6.31a3.39 3.39 0 0 0 3.38 3.38h4.9v.09a7.85 7.85 0 1 0 15.7 0v-.09h20v.09a7.85 7.85 0 0 0 15.7 0v-.09h6a3.39 3.39 0 0 0 3.38-3.38v-9.37a3.37 3.37 0 0 0 -2.56-3.27zm-27.4-29.5c3.17-3.17 8.3-3.59 10.4-3.62 0 2.08-.44 7.22-3.61 10.38-2.57 2.57-6.42 3.33-8.89 3.54l6-6a1 1 0 0 0 0-1.41 1 1 0 0 0 -1.5.03l-6 6c.27-2.51 1-6.36 3.6-8.92zm-19.6-3.62c2.08 0 7.21.45 10.38 3.62 2.62 2.56 3.35 6.41 3.56 8.92l-6.08-6.08a1 1 0 0 0 -1.41 0 1 1 0 0 0 0 1.42l6.07 6.07c-2.47-.21-6.32-1-8.89-3.54-3.17-3.19-3.58-8.33-3.63-10.41zm30 23.09 6.71 7.91h-17.32v-8.68h9a2.18 2.18 0 0 1 1.61.77zm-25.42.05a2.17 2.17 0 0 1 1.7-.82h11.11v8.68h-19zm-8 31.94a5.85 5.85 0 1 1 5.85-5.85 5.85 5.85 0 0 1 -5.8 5.85zm35.68 0a5.85 5.85 0 1 1 5.85-5.85 5.85 5.85 0 0 1 -5.8 5.85zm15.24-9.32a1.38 1.38 0 0 1 -1.38 1.38h-6.25a7.84 7.84 0 0 0 -15.12 0h-20.56a7.84 7.84 0 0 0 -15.12 0h-5.19a1.38 1.38 0 0 1 -1.38-1.38v-6.31a3 3 0 0 1 2.28-2.91l11.73-3.5h.08 42.33a4.33 4.33 0 0 0 .78.3l6.77 1.76a1.37 1.37 0 0 1 1 1.33z"/><path d="m35.6 44.78h-1.6a1 1 0 1 0 0 2h1.6a1 1 0 0 0 0-2z"/></svg>