<svg id="Layer_1" enable-background="new 0 0 55 55" height="512" viewBox="0 0 55 55" width="512" xmlns="http://www.w3.org/2000/svg"><g id="Medical_Chat"><g><g><g><path d="m14.3021355 50.4270172c-1.1850624.2418938-2.4594488-.2156677-3.1395531-1.1615181-.8251371-1.1475639-.8306522-2.8172646-1.1335917-4.151165-.3329048-1.4658432.0474005.2315979-3.0563869-14.9717827-1.095026-5.3638-2.1907172-10.7274628-3.2867842-16.091053-.1408248-.6891241-.281147-1.405405-.099721-2.0920458.6805549-2.5754709 4.8042784-3.3278112 7.0582552-3.7879629 3.0123796-.6149807 6.3324547-.600235 9.3448334-1.2152157 2.2826347-.4660025 4.5653515-.9315948 6.8479004-1.3980093 1.7018986-.3477645 3.6023102-.7188635 4.6895733.933145.387085.5881443.5332031 1.2907362.6723976 1.9761252 2.0511665 10.0472975 4.1416359 20.0873528 6.1402397 30.1451569.4133797 2.0802841 1.8647652 5.7804947-.9099655 7.0116577-.6018409.2670423 1.6640396-.2584895-23.1271972 4.8026677z" fill="#ffc372"/></g></g><g><g><path d="m34.2399559 43.561348c-4.0373554.8242302-14.0498791 2.8682976-18.0078278 3.6763191-1.0710144.2186089-2.2293863-.2273865-2.8540573-1.1312866-.7578831-1.0966644-.7783003-2.6812668-1.0649767-3.9499435-.3150406-1.3941994.0450678.2202263-2.9062948-14.2365246-1.0412493-5.1003857-2.0831008-10.2006493-3.1252909-15.3008443-.133903-.655283-.267601-1.3363323-.1096349-1.9862833.5925555-2.4378481 4.6047301-2.513279 6.6417909-2.9291472 2.7224751-.5557961 5.4449492-1.1115928 8.1674242-1.6673889 2.0629597-.4211555 4.1259975-.8419213 6.1888771-1.2634687 1.5381088-.314311 3.255785-.6489329 4.2557201.9288735.3559952.561727.4948177 1.2298398.6272087 1.8815627 1.9504356 9.5538807 3.9363976 19.1012497 5.839325 28.6646137.393589 1.9780197 1.7422104 5.5029411-.759346 6.6456947-.8774109.4008136-1.956398.4766307-2.8929176.6678234z" fill="#3a97d4"/></g></g><g><g><path d="m28.2555256 9.8407888c.0234642.0741711.0444336.1527185.0630913.2356148.2609215 1.1593256.4907265 2.3266478.7345142 3.4897003.4979153 2.3754435.991806 4.7517309 1.4816647 7.1288481.6661911 3.23279 1.3230095 6.4675026 1.9790516 9.702364.3329124 1.6415443.6655922 3.2831383.9992104 4.9245415.1946831.9578514 1.0773277 3.0425911.2554321 3.8605919-.5697823.5670738-.3511238.3070221-15.1417179 3.3858032-.4842625.1008034-.9945412.2005692-1.4656792.0499344-1.1300507-.3613014-1.136507-2.8077583-1.3349466-3.7759972-1.0083561-4.9200439-2.0269766-9.8671761-3.0227766-14.819973-.6702518-3.333622-1.3641911-6.6627083-2.0483351-9.9935532-.0806866-.3928318-.161334-.8004837-.0705891-1.1911125.2473793-1.0648956 2.1647511-1.0754414 3.0493317-1.2559891 1.3395023-.2734013 1.0761337 1.520793 2.0856838 1.8096228.4418554.1264143.9131823.033432 1.3631506-.060091 1.7864017-.3712931 3.5728035-.7425861 5.3593292-1.113905.6007195-.1248627 1.1757832-.311038 1.3429775-.9529047.1302376-.4999943-.161375-1.0823908.1917362-1.5327892.1700573-.2169113.4513741-.3081522.7171154-.3813057.6271076-.1726294 1.26441-.3082256 1.9074802-.4058447.863659-.1311064 1.3264924.1764145 1.5542756.8964443z" fill="#fff"/></g></g><g><g><g><path d="m21.6765423 21.3015442c.6111774-.1129513 1.1982899.2910023 1.3112411.9021778l1.7066612 9.2346478c.1129513.6111755-.2910023 1.1982918-.9021778 1.3112411-.6111774.1129532-1.1982899-.2910004-1.3112411-.9021778l-1.7066612-9.2346478c-.1129513-.6111755.2910022-1.1982898.9021778-1.3112411z" fill="#ff5f6e"/></g></g></g><g><g><g><path d="m17.1892738 24.9321556c.1897812-.7370758.8237-1.1534576 1.4157753-.9299355l8.9460239 3.3773441c.5920734.2235222.9182472 1.0023632.7284641 1.739439-.1897812.7370758-.8237 1.1534576-1.4157753.9299355l-8.9460239-3.3773441c-.5920734-.2235241-.9182472-1.0023632-.7284641-1.739439z" fill="#ff5f6e"/></g></g></g><g><g><g><path d="m18.1607761 29.0389671 7.9460526-6.3624382c.5258923-.4210854 1.2211933-.2395973 1.5528641.4053307.3316708.6449261.1741982 1.5092335-.3516941 1.9303188l-7.9460526 6.3624363c-.5258923.4210854-1.2211933.2395973-1.5528641-.4053288-.3316726-.644926-.1742-1.5092353.3516941-1.9303188z" fill="#ff5f6e"/></g></g></g><g><g><path d="m17.6264057 9.7045383c-.0551758-.2705078.1196289-.534668.3901367-.5893555l1.5996094-.3251953c.2705078-.0541992.534668.1210938.5893555.3911133.0546875.2705078-.1206055.5341797-.3911133.5893555l-1.5986328.3242188c-.2723332.0552559-.5349789-.1210337-.5893555-.3901368z"/></g></g><g><g><path d="m51.5 9.4819775v7.6712742c0 1.4086037-1.1421356 2.5507412-2.5507431 2.5507412-1.4077835 0-10.4464226 0-11.9371033 0-1.3796539 0-2.8171539-.1117115-4.1355438.3790016-.7042618.2621307-1.2676373.7447147-1.7388783 1.3197212-.4381924.5346794-.7640686 1.3610458-1.3666725 1.7293091-.5753517-.4836693-.4085464-1.5880394-.3569355-2.2382221.082634-1.040987.0446434-2.0879707.0430737-3.1332722-.0037136-2.4727116-.0074272-4.9454222-.0111427-7.4181337-.0009861-.6564951.0021954-1.3343439.2617264-1.9373617.3875408-.9004502 1.3368359-1.4833245 2.3094311-1.483325h16.9320488c1.4086036-.0000001 2.5507392 1.1421374 2.5507392 2.5602674z" fill="#5bd9c3"/></g></g><g><g><path d="m28.876894 22.8065891c-.0141602 0-.0283203-.0004883-.0429688-.0019531-.2753906-.0234375-.4790039-.265625-.4555664-.5405273.0898438-1.0561523.1162109-3.5756836.1147461-4.6303711l-.0126953-7.625c-.0009766-.6904297-.0019531-1.4726563.3349609-2.2026367.5024414-1.0854492 1.7099609-1.8144531 3.0043945-1.8144531h2.0913105c.2763672 0 .5.2236328.5.5s-.2236328.5-.5.5h-2.0913105c-.8979492 0-1.7602539.5078125-2.0966797 1.234375-.2446289.5292969-.2436523 1.1655273-.2426758 1.78125l.0126953 7.625c.0014648 1.0688477-.0253906 3.628418-.1186523 4.7167969-.0219726.2607421-.2407226.4575194-.4975585.4575194z"/></g></g><g><g><path d="m32.5849037 13.4569798c-.1738281-.2148438-.140625-.5297852.0742188-.703125.2158203-.1748047.5292969-.1396484.703125.0742188.7626953.9418945 2.2397461 1.2241211 3.2954102.628418.4855843-.2735815.9583435-.7612638 1.496582-1.1113281.7949219-.519043 1.6269531-.6298828 2.2851563-.3056641.9174538.4520655 1.2486229 1.6650105 1.8378906 1.7226563.4250412.0417747.8194771-.487607 1.3540039-.8989258 1.4260979-1.1014261 3.698288-.744175 4.7216797.7265625.1577148.2265625.1015625.5385742-.125.6962891-.2265625.1582031-.5380859.1010742-.6962891-.125-.7027817-1.0104408-2.3232574-1.2513332-3.2890625-.5068359-.5482864.424696-1.1439705 1.189147-2.0629883 1.1030273-1.7039948-.1682396-1.5496101-2.8314896-3.4794922-1.5742188-.5273514.3426008-.9322205.7951088-1.550293 1.1445313-1.4903373.8408774-3.4942016.4543532-4.5649414-.8706056z"/></g></g><g><g><path d="m14.5121479 43.0990715-.0405273-.3076172c-.0615234-.4863281-.1196289-.9453125-.3481445-1.3237305-.0712891-.1181641-.0336914-.2719727.0844727-.3432617.1186523-.0708008.2724609-.0341797.3432617.0844727.2836914.4692383.3510742 1.003418.4165039 1.5195313l.0395508.2998047c.154027 1.0774384.6062822 1.741188 1.6870117 1.5512695.3842773-.0683594.7587891-.2407227 1.1210938-.4072266.1240234-.0571289.2734375-.003418.331543.1225586.0576172.1254883.0029297.2739258-.1225586.331543-.390625.1801758-.7949219.3662109-1.2431641.4453125-1.3408052.2390937-2.0679218-.5688324-2.2690431-1.9726563z"/></g></g><g><g><path d="m14.4389057 20.2894993c-.5952148-1.8217773-1.0249023-3.7084961-1.2758789-5.6079102-.0180664-.1367188.0786133-.2626953.215332-.2807617.1308594-.0209961.262207.078125.2807617.215332.246582 1.8691406.6689453 3.7255859 1.2553711 5.5180664.0429688.1313477-.0288086.2724609-.1601563.3154297-.1328639.0426178-.2725915-.0298328-.3154296-.1601562z"/></g></g></g></g></svg>