<svg id="Layer_1" enable-background="new 0 0 512 512" height="512" viewBox="0 0 512 512" width="512" xmlns="http://www.w3.org/2000/svg"><g><path d="m499.235 287.922-16.294-141.14c-2.293-19.827-18.302-34.05-37.211-33.104-18.678.905-32.883 16.185-33.777 36.337l-4.029 91.771c-12.136-3.244-25.638-.154-35.174 9.3l-26.346 26.055c-22.259 22.045-42.856 47.014-42.856 80.152v73.464c-12.209 2.242-21.492 12.942-21.492 25.775v29.225c0 14.47 11.774 26.242 26.247 26.242h112.591c14.457 0 26.218-11.772 26.218-26.242v-29.225c0-12.831-9.27-23.53-21.463-25.774v-14.676c0-15.612 8.133-27.428 36.266-52.684 22.678-20.379 42.267-37.983 37.32-75.476zm-72.124 168.611v29.225c0 3.442-2.79 6.242-6.218 6.242h-112.591c-3.386 0-6.247-2.858-6.247-6.242v-29.225c0-3.426 2.802-6.214 6.247-6.214h112.591c3.429 0 6.218 2.788 6.218 6.214zm21.438-108.012c-29.067 26.096-42.901 42.862-42.901 67.563v14.236h-82.101v-73.025c0-24.372 14.763-43.988 36.925-65.937l26.35-26.059c6.449-6.394 16.899-6.365 23.296.064 6.38 6.414 6.338 16.862-.086 23.285l-40.347 40.251c-3.91 3.901-3.917 10.232-.017 14.142 3.901 3.91 10.232 3.917 14.142.017l40.354-40.259c13.089-13.085 14.163-33.726 3.208-48.01l4.561-103.892c.365-8.23 5.554-16.795 14.784-17.243 8.252-.425 15.291 6.214 16.356 15.424l16.303 141.219c.007.057.014.114.021.17 3.448 25.946-7.584 37.148-30.848 58.054z"/><path d="m208.432 430.754v-73.46c0-33.139-20.598-58.107-42.858-80.154l-26.307-26.044c-9.553-9.472-23.059-12.566-35.188-9.323l-4.053-91.761c-.894-20.147-15.099-35.427-33.756-36.332-18.938-.96-34.939 13.275-37.232 33.106l-16.265 141.132c-4.975 37.472 14.627 55.088 37.324 75.485 28.128 25.252 36.262 37.068 36.262 52.68v14.671c-12.208 2.232-21.492 12.938-21.492 25.779v29.225c0 14.47 11.761 26.242 26.218 26.242h112.62c14.457 0 26.218-11.772 26.218-26.242v-29.225c.001-12.84-9.283-23.546-21.491-25.779zm-144.97-82.23c-23.283-20.922-34.321-32.129-30.854-58.047.008-.061.016-.121.022-.181l16.276-141.216c1.065-9.212 8.107-15.858 16.376-15.425 9.21.446 14.399 9.012 14.764 17.24l4.589 103.894c-10.974 14.3-9.895 34.946 3.216 48.017l40.347 40.251c3.909 3.9 10.241 3.894 14.142-.017 3.9-3.91 3.893-10.241-.017-14.142l-40.349-40.253c-6.436-6.416-6.473-16.86-.074-23.292 6.382-6.433 16.828-6.458 23.291-.049l26.311 26.048c22.167 21.955 36.931 41.57 36.931 65.942v73.025h-82.073v-14.236c-.001-24.701-13.834-41.467-42.898-67.559zm146.462 137.234c0 3.384-2.848 6.242-6.218 6.242h-112.62c-3.371 0-6.218-2.858-6.218-6.242v-29.225c0-3.368 2.848-6.214 6.218-6.214h112.62c3.371 0 6.218 2.846 6.218 6.214z"/><path d="m187.345 243.848h23.732c5.523 0 10-4.477 10-10s-4.477-10-10-10h-23.732c-4.257 0-7.721-3.461-7.721-7.716v-39.202c0-20.623 11.153-39.415 28.887-49.473 12.74 11.042 29.336 17.748 47.478 17.748 18.146 0 34.744-6.703 47.488-17.741 17.728 10.06 28.876 28.848 28.876 49.466v39.202c0 4.255-3.463 7.716-7.721 7.716h-23.732c-5.523 0-10 4.477-10 10s4.477 10 10 10h23.732c15.285 0 27.721-12.434 27.721-27.716v-39.202c0-26.502-13.613-50.75-35.524-64.75 7.445-11.397 11.792-24.992 11.792-39.591.001-40.026-32.582-72.589-72.631-72.589-40.034 0-72.604 32.563-72.604 72.588 0 14.594 4.342 28.186 11.78 39.58-21.92 13.998-35.54 38.252-35.54 64.761v39.202c-.001 15.283 12.434 27.717 27.719 27.717zm68.645-223.848c29.021 0 52.632 23.591 52.632 52.588 0 29.013-23.611 52.616-52.632 52.616-29.006 0-52.604-23.604-52.604-52.616-.001-28.997 23.597-52.588 52.604-52.588z"/><path d="m255.99 223.848c-5.523 0-10 4.477-10 10s4.477 10 10 10h.057c5.523 0 9.972-4.477 9.972-10s-4.507-10-10.029-10z"/></g></svg>