<svg id="Layer_1" enable-background="new 0 0 55 55" height="512" viewBox="0 0 55 55" width="512" xmlns="http://www.w3.org/2000/svg"><g id="Stethoscope"><g><g><g><path d="m7.7554107 46.8810539c1.8062549 1.871624 4.6877103 2.6851273 6.9495616 1.1332703 1.5896959-1.0907021 2.3985147-3.1457443 2.1556368-5.0582733-.2428703-1.9124603-1.4575901-3.6376266-3.0818777-4.6759834-1.8584023-1.1880188-4.61695-1.3603554-6.3766923.1070251-2.0733314 1.7288704-2.0407939 6.0131493.3533716 8.4939613z" fill="#5bd9c3"/></g></g><g><g><g><path d="m26.1740932 49.3824921c-1.3553371-.8512917-2.6530857-2.0350037-3.9109211-3.5727997-3.3635387.073555-7.2835827-.3039093-10.7873878-1.9967995-.290226-.1402664-.4116764-.4892197-.27141-.7800179.1408367-.2890854.4892216-.4099655.7800179-.2714081 3.0066013 1.4528389 6.3655796 1.8742065 9.3858662 1.8878937-3.7868977-5.2199059-7.0348434-12.4269753-2.813879-17.3080616 1.5457802-1.7858276 4.3716335-3.1805096 6.926075-2.0218868 1.8468399.8376064 2.9484425 2.8287029 3.5442886 4.7126045 3.6896572-2.556469 8.3525486-1.1927528 10.1214085 2.2784729 1.6706543 3.2768707.1419792 7.0144539-1.9853935 9.1002007-3.3698883 3.3041725-8.6160412 4.0678635-13.4153862 4.3408432.9904175 1.1095848 2.0030708 1.9859657 3.0482254 2.6422501 5.6445274 3.5442085 13.353817 2.0683174 17.035511-3.1155052 3.8271027-5.3785858 2.1399155-12.1444397.2423286-17.4380646-.1089058-.3039093.0490379-.6380405.3523788-.7469463.3039093-.1094761.6374702.0484657.7469444.3523769 1.9933777 5.5610428 3.7506981 12.6906776-.390007 18.5094452-4.0636292 5.7144775-12.4657974 7.2847328-18.6086598 3.4274025zm-2.6502342-23.3110009c-1.532095 0-3.0972614.8929138-4.0842571 2.0338612-3.196476 3.6965294-1.1745872 8.9205914.314743 11.7059612 1.0052414 1.8804817 2.0207462 3.4804268 3.0573483 4.8146667 1.1677456-.0416222 2.2613659-.1328545 3.2369576-.2337761 3.33218-.3432541 7.5139408-1.0873489 10.2964573-3.8151283 1.8907433-1.8536835 3.1035347-5.1066055 1.7630234-7.7363129-1.5231323-2.9897442-5.6662674-4.0553589-8.7592316-1.5982361.1214504.5593548.197855 1.0810776.2371979 1.5246811.0450459.5086098.0592995 1.2578354-.3284283 1.8901749-.9036999 1.4696312-3.012188.9437103-2.9364681-.8472977.0426979-1.0204697.9941196-2.2644653 1.7208271-2.9689713-.6655255-2.3873137-2.0374261-4.7696227-4.5181695-4.7696227zm4.82094 6.1625939c-.3092632.3819771-.8366928 1.1349258-.8569927 1.6250343-.0247498.5774956.5016537.6318436.7743149.1875916.277998-.4526215.1699677-1.2452469.0826778-1.8126259z" fill="#ff5f6e"/></g></g></g><g><g><g><path d="m46.1135292 20.8782177c-1.0754814.0881538-.9696732-.8260365-1.017643-1.6340942-.04245-.7150536-.0931969-1.4296169-.1522179-2.1434937-.115097-1.3921671-.2616768-2.7817316-.4395866-4.1672726-.3032417-2.3616028-.5961456-4.762455-2.429512-6.4908423-.6353912-.5990071-1.4967995-1.0670309-2.3544693-.9029036-.7755928.1484213-1.2115059.9313622-1.7976036 1.3788714-.4718285.3602581-.5472069.1403899-.8045731-.3433299-.1868439-.3511753-.6855659-1.1696081-.5715675-1.5769653.1150169-.4110017.8913231-.822083 1.2390785-1.0011604 2.2838364-1.1760769 5.2528915-.2541063 6.9242935 2.6470149.7634811 1.3256874 1.1147194 2.78936 1.3804245 4.1737766.5616379 2.9279156.8267746 5.9099989 1.0833588 8.7940111.0570183.6420327-.4173775 1.2093697-1.0599823 1.266388z" fill="#e2d2f6"/></g></g></g><g><g><g><path d="m38.2292595 26.5508976c-.4071159 0-.8022575-.2126789-1.0172157-.5918541-3.5864029-6.3284836-7.4170399-7.5576801-8.7136154-11.9790821-.4909325-1.673502-.3552284-3.4137163.3729019-4.7741852.8792305-1.6415715 2.642252-2.6661997 4.3573799-2.5595741.6437416.0410533 1.1323929.5964165 1.0913315 1.2397223-.0343323.5378351-1.6254654.7182379-2.1159782.9815655-2.2590294 1.2127457-2.6055508 3.5212355-1.408144 5.7209568 1.0951405 2.0118494 2.6906414 2.8972139 6.3447247 7.5700235.6048737.7735081 1.1928673 1.5603752 1.7623901 2.3602791.4493637.6311359.7871208 1.3804703-.0990257 1.8804798-.1818925.1026325-.3797456.1516685-.5747491.1516685z" fill="#e2d2f6"/></g></g></g><g><g><g><path d="m40.7994156 30.3992176c-1.3832741-.5228615-2.2379875-1.6917477-2.8036118-2.4654922l-2.3503151-3.2118702c-.571331-.7805862-.401413-1.8764877.3791733-2.4478168.7800179-.5701885 1.8764877-.4019833 2.4478188.3791752 2.7158279 3.7121868 3.0555763 4.2765331 3.5648155 4.4685631.5910835.2237968 2.0326347-.2207336 2.5772514-.6517239.6043968-.4772472 1.0423012-1.4767876.9008942-2.0560989-.5774879-2.3766823-.6016693-2.8944836-.8809395-4.0950909-.1727676-.7475166-.3683395-1.5948162-.3438225-2.4609318.0273666-.9670391.8450165-1.7402134 1.8012238-1.7008705.9670372.0279388 1.728241.8341846 1.7008705 1.8012238-.0179253.6223087.2932396 1.6186867.4544411 2.4985638.1818886.9938374.4019814 2.0173264.6722527 3.1280518.5302734 2.1735573-.6722527 4.479969-2.1336441 5.6345997-1.4478036 1.1430605-4.1186829 1.8848779-5.9864083 1.1797178z" fill="#ff5f6e"/></g></g></g><g><g><g><path d="m40.62257 30.8667622c-1.5219727-.574707-2.4296875-1.815918-3.0302734-2.637207l-2.3500977-3.2124023c-.1630859-.2231445-.1147461-.5356445.1079102-.6987305.2236328-.1635742.5366211-.1147461.6987305.1079102l2.3500977 3.2119141c.53125.7265625 1.3334961 1.8232422 2.5771484 2.2929688 1.7167168.6478176 4.2153015-.0898438 5.4995117-1.1044922.6879883-.5429688 1.2944336-1.3579102 1.6630859-2.2363281.1074219-.2543945.4003906-.3754883.6547852-.2670898.2543945.1069336.3740234.3999023.2670898.6547852-.4384766 1.0439453-1.1367188 1.9794922-1.9648438 2.6337891-1.5721816 1.2405201-4.4227142 2.0294091-6.4731445 1.2548825z"/></g></g></g><g><g><path d="m35.1546211 9.1976547c-.2632027.2506123-.6813393.1175337-.9918213.0742283-.2894402-.0403719-.5800095-.0718546-.8692398-.1143761-.4131966-.0607424-.8466759-.1399813-1.1670303-.4079247-.3140869-.2627029-.4725037-.6753035-.5097752-1.0830722-.0451736-.4940934-.0277977-1.0498805.3837795-1.3815689.5042343-.4063601 1.244175-.6184058 1.8777466-.6763601.6677589-.0610819.8514671.1894555.9637756.7528458.1071777.5376496.20644 1.0768743.2977867 1.6174393.0590173.349237.3181916.929872.0147782 1.2187886z" fill="#3a97d4"/></g></g><g><g><path d="m37.6340485 8.2995853c.3631744.0136518.5885353-.3628621.7926102-.6008267.1902466-.221838.3872185-.4377594.5758858-.6610703.2695313-.3190198.5420227-.665329.6048164-1.078218.0615692-.4048138-.0927734-.8189554-.3347282-1.1492925-.2931709-.4002757-.6740608-.8053975-1.2021217-.7816186-.6469421.0291324-1.3419533.3599319-1.8552437.7358389-.5409889.3961897-.5128708.7055864-.2241592 1.2022438.2755165.4739656.5580101.9438744.8473282 1.4095469.1869124.3008523.3769453.9076438.7956122.9233965z" fill="#3a97d4"/></g></g><g><g><path d="m12.9608011 45.4112015c1.4959164-1.0263557 1.3912773-3.4251404-.43713-4.5939865-.8770552-.5606728-2.1789246-.6420059-3.0094175.0505104-.9699545.8088074-.8416576 2.5271912-.2280779 3.5051727.7740984 1.2338371 2.4322453 1.8907013 3.6746254 1.0383034z"/></g></g><g><g><g><path d="m18.9643669 21.7012348c-.7314453-.7583008-1.6469727-1.3666992-2.6489258-1.7592773-.2568359-.1005859-.3837891-.390625-.2827148-.6479492.1005859-.2573242.3916016-.3833008.6479492-.2827148 1.1342773.4443359 2.1728516 1.1347656 3.003418 1.9956055.1918945.1987305.1860352.5151367-.0126953.7070313-.1986866.1916979-.5150071.1860159-.7070313-.0126955z"/></g></g><g><g><path d="m22.3144646 19.1851215c-.3261719-1.1660156-.3129883-2.3925781.0385742-3.546875.0810547-.2641602.3603516-.4135742.6240234-.3330078.2641602.0805664.4130859.3598633.3330078.6240234-.2963867.9716797-.3076172 2.0043945-.0327148 2.9863281.074707.2661133-.0805664.5419922-.3466797.6162109-.2623672.0741464-.5414696-.0785598-.6162109-.3466796z"/></g></g><g><g><path d="m19.9521599 19.0235004c-.6699219-1.09375-1.2167969-2.2631836-1.6254883-3.4760742-.0883789-.2617188.0522461-.5454102.3139648-.6333008.2612305-.0888672.5449219.0527344.6333008.3139648.3852539 1.1420898.8999023 2.2431641 1.5307617 3.2729492.1445313.2353516.0703125.543457-.1650391.6875-.2385081.1456758-.5448169.0678369-.6874999-.165039z"/></g></g></g><g><g><path d="m7.6386838 44.5205688c-.7329102-1.3085938-.6728516-3.0307617.1499023-4.2851563.1796203-.2769623.5995526-.003231.4179683.2744141-.7231441 1.1025391-.7758784 2.6162109-.1313477 3.7666016.0673828.1206055.0244141.2729492-.0961909.340332-.1202826.0669938-.2726717.0247346-.340332-.0961914z"/></g></g><g><g><path d="m46.7109489 22.2427387c-.1191406 0-.2250977-.0859375-.2460938-.2080078l-.5722656-3.3388672c-.0550079-.3265343.4369469-.4105511.4931641-.0849609l.5722656 3.3398438c.0229492.1357422-.0683594.2651367-.2045898.2885742-.0141601.0024414-.0283203.0034179-.0424805.0034179z"/></g></g></g></g></svg>